<?xml version="1.0" encoding="UTF-8"?>
<svg version="1.1" viewBox="0 0 2000 2000" width="1280" height="1280" xmlns="http://www.w3.org/2000/svg">
<path transform="translate(998,316)" d="m0 0 4 2 14 23 16 26 17 28 19 32 16 27 10 17 14 24 15 26 28 49 30 54 16 29 15 28 12 22 18 34 23 45 17 33 22 45 15 31 11 24 18 40 20 47 17 43 10 27 15 44 10 35 7 28 5 30 2 26v38l-2 30-3 21-6 29-7 25-7 21-11 27-12 25-11 20-12 19-12 17-10 13-9 11-10 11-7 8-22 22-11 9-8 7-17 13-17 12-18 11-21 12-27 13-25 10-27 9-28 7-27 5-22 3-14 1h-65l-23-2-30-5-30-7-29-9-28-11-33-16-26-15-19-13-16-12-11-9-14-12-15-14-12-12-7-8-12-14-13-17-13-18-15-25-9-16-11-23-10-25-11-33-7-28-5-30-3-26v-61l5-33 7-31 9-33 15-46 18-48 15-37 15-35 12-27 13-28 12-26 14-29 9-19 10-19 24-48 9-17 7-14 12-22 16-31 13-23 15-28 13-23 13-24 12-21 13-23 15-26 15-25 6-11 17-29 17-28 8-14 17-28 9-15 16-26 11-18zm78 340 2 9 12 35 12 32 19 49 18 45 18 44 16 39 18 43 19 46 34 85 13 35 12 34 13 41 7 28 4 23v45l-4 31-5 24-7 25-8 22-12 27-10 19-14 22-13 18-8 10-11 13-14 15-7 7v1h5l19-10 16-9 20-14 17-14 13-12 9-9 7-8 8-10 10-13 12-19 8-14 8-15 10-24 8-24 6-24 4-23 3-31v-12l-4-36-6-29-10-37-9-29-15-41-12-29-13-30-17-36-11-23-10-19-13-25-13-23-16-28-17-28-15-24-14-22-15-22-11-16-10-14-11-15-16-21-11-14-12-15-5-6z" fill="#07DEAC"/>
</svg>
